<svg width="45" height="45" viewBox="0 0 45 45" fill="none" xmlns="http://www.w3.org/2000/svg">
<g clip-path="url(#clip0_535_9093)">
<rect width="45" height="45" rx="5" fill="#242424"/>
<path d="M4.48409 6.00061H40.5141" stroke="#6BDCFF" stroke-width="2"/>
<path d="M4.48407 11.4055H19.1398V40.9994" stroke="#6BDCFF" stroke-width="2"/>
<path d="M40.5159 11.4055H25.8602V40.9994" stroke="#6BDCFF" stroke-width="2"/>
<path opacity="0.3" d="M4.44006 5.50208L1996.83 -168.809M4.39685 5.50781L1974.01 -341.789M4.35425 5.51721L1936.21 -512.121M4.31262 5.5304L1883.7 -678.51M4.27234 5.54712L1816.89 -839.689M4.23364 5.56726L1736.28 -994.433M4.19678 5.5907L1642.5 -1141.56M4.16223 5.61719L1536.25 -1279.96M4.13013 5.64673L1418.34 -1408.57M4.10059 5.67883L1289.68 -1526.41M4.0741 5.71338L1151.23 -1632.59M4.05066 5.75024L1004.05 -1726.3M4.03052 5.78894L849.267 -1806.83M4.01379 5.82922L688.054 -1873.56M4.00061 5.87085L521.639 -1925.98M3.99121 5.91345L351.288 -1963.7M3.98547 5.95667L178.297 -1986.43M3.98364 6.00024L3.98389 -1994M3.98547 6.04382L-170.326 -1986.35M3.99121 6.08704L-343.305 -1963.53M4.00061 6.12964L-513.637 -1925.72M4.01379 6.17126L-680.026 -1873.21M4.03052 6.21155L-841.206 -1806.4M4.05066 6.25024L-995.95 -1725.8M4.0741 6.28699L-1143.08 -1632.02M4.10059 6.32166L-1281.47 -1525.77M4.13013 6.35376L-1410.08 -1407.86M4.16223 6.3833L-1527.93 -1279.19M4.19678 6.40979L-1634.11 -1140.74M4.23364 6.43323L-1727.82 -993.568M4.27234 6.45337L-1808.34 -838.784M4.31262 6.47009L-1875.07 -677.571M4.35425 6.48315L-1927.5 -511.156M4.39685 6.49268L-1965.22 -340.804M4.44006 6.49829L-1987.95 -167.814M4.48364 6.50024L-1995.52 6.49976M4.52722 6.49829L-1987.86 180.809M4.57043 6.49268L-1965.05 353.789M4.61304 6.48315L-1927.24 524.121M4.65466 6.47009L-1874.73 690.51M4.69495 6.45337L-1807.92 851.69M4.73364 6.43323L-1727.32 1006.43M4.77039 6.40979L-1633.53 1153.56M4.80505 6.3833L-1527.29 1291.96M4.83716 6.35376L-1409.38 1420.57M4.8667 6.32166L-1280.71 1538.41M4.89319 6.28699L-1142.26 1644.59M4.91663 6.25024L-995.084 1738.3M4.93677 6.21155L-840.301 1818.83M4.95349 6.17126L-679.088 1885.56M4.96655 6.12964L-512.672 1937.98M4.97607 6.08704L-342.321 1975.7M4.98169 6.04382L-169.33 1998.43M4.98364 6.00024L4.98303 2006M4.98169 5.95667L179.293 1998.35M4.97607 5.91345L352.272 1975.53M4.96655 5.87085L522.604 1937.72M4.95349 5.82922L688.994 1885.22M4.93677 5.78894L850.173 1818.41M4.91663 5.75024L1004.92 1737.8M4.89319 5.71338L1152.05 1644.02M4.8667 5.67883L1290.44 1537.77M4.83716 5.64673L1419.05 1419.86M4.80505 5.61719L1536.89 1291.19M4.77039 5.5907L1643.08 1152.75M4.73364 5.56726L1736.79 1005.57M4.69495 5.54712L1817.31 850.785M4.65466 5.5304L1884.04 689.572M4.61304 5.51721L1936.47 523.156M4.57043 5.50781L1974.19 352.805M4.52722 5.50208L1996.92 179.815M4.48364 5.50024L2004.49 5.5011" stroke="#6BDCFF" stroke-width="0.5"/>
</g>
<rect x="0.25" y="0.25" width="44.5" height="44.5" rx="4.75" stroke="#6BDCFF" stroke-width="0.5"/>
<defs>
<clipPath id="clip0_535_9093">
<rect width="45" height="45" rx="5" fill="white"/>
</clipPath>
</defs>
</svg>
