<svg width="35" height="35" viewBox="0 0 35 35" fill="none" xmlns="http://www.w3.org/2000/svg">
<path d="M17.5057 0C10.1996 0 8.06287 0.0075391 7.64753 0.0420036C6.14819 0.166668 5.21522 0.402803 4.19879 0.909C3.41548 1.29807 2.79771 1.74907 2.18802 2.38128C1.07765 3.53422 0.404697 4.95265 0.161089 6.63872C0.0426501 7.45725 0.00819504 7.62418 0.00119636 11.8052C-0.00149545 13.1988 0.00119636 15.033 0.00119636 17.4931C0.00119636 24.7953 0.00927176 26.9305 0.0442652 27.3451C0.165396 28.8045 0.394199 29.7226 0.878724 30.7269C1.8047 32.6494 3.57322 34.0926 5.65667 34.6311C6.37807 34.8169 7.17485 34.9192 8.19773 34.9677C8.63111 34.9865 13.0484 35 17.4683 35C21.8882 35 26.3082 34.9946 26.7308 34.9731C27.9152 34.9173 28.6029 34.825 29.3634 34.6284C30.3964 34.3634 31.3592 33.8761 32.1845 33.2003C33.0097 32.5246 33.6775 31.6768 34.1413 30.7162C34.6164 29.7361 34.8573 28.7829 34.9664 27.3998C34.99 27.0982 35 22.2902 35 17.4886C35 12.6862 34.9892 7.88698 34.9655 7.58541C34.8552 6.17991 34.6143 5.23483 34.1238 4.2359C33.7214 3.41817 33.2746 2.80751 32.6258 2.18311C31.4684 1.07701 30.0525 0.40388 28.365 0.160475C27.5475 0.0422728 27.3846 0.00726985 23.2016 0H17.5057Z" fill="url(#paint0_radial_535_8832)"/>
<path d="M17.5057 0C10.1996 0 8.06287 0.0075391 7.64753 0.0420036C6.14819 0.166668 5.21522 0.402803 4.19879 0.909C3.41548 1.29807 2.79771 1.74907 2.18802 2.38128C1.07765 3.53422 0.404697 4.95265 0.161089 6.63872C0.0426501 7.45725 0.00819504 7.62418 0.00119636 11.8052C-0.00149545 13.1988 0.00119636 15.033 0.00119636 17.4931C0.00119636 24.7953 0.00927176 26.9305 0.0442652 27.3451C0.165396 28.8045 0.394199 29.7226 0.878724 30.7269C1.8047 32.6494 3.57322 34.0926 5.65667 34.6311C6.37807 34.8169 7.17485 34.9192 8.19773 34.9677C8.63111 34.9865 13.0484 35 17.4683 35C21.8882 35 26.3082 34.9946 26.7308 34.9731C27.9152 34.9173 28.6029 34.825 29.3634 34.6284C30.3964 34.3634 31.3592 33.8761 32.1845 33.2003C33.0097 32.5246 33.6775 31.6768 34.1413 30.7162C34.6164 29.7361 34.8573 28.7829 34.9664 27.3998C34.99 27.0982 35 22.2902 35 17.4886C35 12.6862 34.9892 7.88698 34.9655 7.58541C34.8552 6.17991 34.6143 5.23483 34.1238 4.2359C33.7214 3.41817 33.2746 2.80751 32.6258 2.18311C31.4684 1.07701 30.0525 0.40388 28.365 0.160475C27.5475 0.0422728 27.3846 0.00726985 23.2016 0H17.5057Z" fill="url(#paint1_radial_535_8832)"/>
<path d="M17.4975 4.57715C13.9884 4.57715 13.5481 4.5925 12.1699 4.65523C10.7943 4.71824 9.85545 4.93606 9.03391 5.25567C8.18411 5.58577 7.46325 6.02735 6.74507 6.74599C6.02636 7.46435 5.58491 8.18541 5.25381 9.03518C4.93349 9.85721 4.71545 10.7966 4.65354 12.172C4.59217 13.5506 4.57602 13.9913 4.57602 17.5013C4.57602 21.0113 4.59163 21.4505 4.65408 22.829C4.71734 24.2049 4.93511 25.1441 5.25435 25.9658C5.58464 26.8159 6.02609 27.5369 6.74453 28.2553C7.46244 28.9742 8.1833 29.4169 9.03257 29.747C9.85464 30.0666 10.7938 30.2844 12.1691 30.3474C13.5473 30.4101 13.9874 30.4255 17.4961 30.4255C21.0054 30.4255 21.4445 30.4101 22.8227 30.3474C24.1982 30.2844 25.1382 30.0666 25.9602 29.747C26.8098 29.4169 27.5296 28.9742 28.2475 28.2553C28.9662 27.5369 29.4076 26.8159 29.7387 25.9661C30.0563 25.1441 30.2744 24.2047 30.339 22.8293C30.4009 21.4507 30.417 21.0113 30.417 17.5013C30.417 13.9913 30.4009 13.5508 30.339 12.1723C30.2744 10.7964 30.0563 9.85721 29.7387 9.03545C29.4076 8.18541 28.9662 7.46435 28.2475 6.74599C27.5287 6.02708 26.81 5.5855 25.9594 5.25567C25.1357 4.93606 24.1963 4.71824 22.8208 4.65523C21.4426 4.5925 21.0038 4.57715 17.4937 4.57715H17.4975ZM16.3384 6.90619C16.6824 6.90565 17.0662 6.90619 17.4975 6.90619C20.9473 6.90619 21.3562 6.91858 22.7185 6.98051C23.9783 7.03813 24.662 7.24868 25.1174 7.42558C25.7204 7.65983 26.1503 7.93986 26.6022 8.3922C27.0544 8.84455 27.3344 9.27535 27.5691 9.87848C27.746 10.3335 27.9567 11.0174 28.0141 12.2775C28.076 13.64 28.0894 14.0492 28.0894 17.4984C28.0894 20.9475 28.076 21.3568 28.0141 22.7192C27.9565 23.9793 27.746 24.6632 27.5691 25.1182C27.3349 25.7214 27.0544 26.1508 26.6022 26.6029C26.15 27.0552 25.7207 27.3353 25.1174 27.5695C24.6625 27.7472 23.9783 27.9572 22.7185 28.0149C21.3564 28.0768 20.9473 28.0903 17.4975 28.0903C14.0474 28.0903 13.6385 28.0768 12.2765 28.0149C11.0167 27.9567 10.333 27.7461 9.87725 27.5692C9.27429 27.335 8.8436 27.055 8.39138 26.6026C7.93916 26.1503 7.65921 25.7206 7.42448 25.1172C7.24763 24.6621 7.03686 23.9782 6.97953 22.7181C6.91762 21.3557 6.90524 20.9464 6.90524 17.4951C6.90524 14.0438 6.91762 13.6367 6.97953 12.2743C7.03713 11.0142 7.24763 10.3303 7.42448 9.87471C7.65867 9.27158 7.93916 8.84078 8.39138 8.38843C8.8436 7.93609 9.27429 7.65606 9.87725 7.42127C10.3327 7.24357 11.0167 7.03355 12.2765 6.97566C13.4684 6.92181 13.9303 6.90565 16.3384 6.90296V6.90619ZM24.3944 9.05214C24.0877 9.05214 23.7879 9.14311 23.533 9.31355C23.278 9.48399 23.0792 9.72624 22.9619 10.0097C22.8446 10.2931 22.8139 10.6049 22.8738 10.9058C22.9336 11.2067 23.0814 11.483 23.2982 11.6999C23.5151 11.9168 23.7915 12.0644 24.0923 12.1242C24.3931 12.184 24.7048 12.1532 24.9881 12.0357C25.2714 11.9183 25.5135 11.7194 25.6838 11.4643C25.8541 11.2092 25.945 10.9093 25.9449 10.6025C25.9449 9.74628 25.2504 9.0516 24.3944 9.0516V9.05214ZM17.4975 10.8642C13.8331 10.8642 10.8622 13.836 10.8622 17.5013C10.8622 21.1667 13.8331 24.1371 17.4975 24.1371C21.1618 24.1371 24.132 21.1667 24.132 17.5013C24.132 13.836 21.1616 10.8642 17.4972 10.8642H17.4975ZM17.4975 13.1933C19.8759 13.1933 21.8044 15.1219 21.8044 17.5013C21.8044 19.8804 19.8759 21.8094 17.4975 21.8094C15.1187 21.8094 13.1906 19.8804 13.1906 17.5013C13.1906 15.1219 15.1187 13.1933 17.4975 13.1933Z" fill="white"/>
<defs>
<radialGradient id="paint0_radial_535_8832" cx="0" cy="0" r="1" gradientUnits="userSpaceOnUse" gradientTransform="translate(9.29692 37.6957) rotate(-90) scale(34.6876 32.2622)">
<stop stop-color="#FFDD55"/>
<stop offset="0.1" stop-color="#FFDD55"/>
<stop offset="0.5" stop-color="#FF543E"/>
<stop offset="1" stop-color="#C837AB"/>
</radialGradient>
<radialGradient id="paint1_radial_535_8832" cx="0" cy="0" r="1" gradientTransform="matrix(3.04338 15.2039 -62.6697 12.5517 -5.86269 2.52134)" gradientUnits="userSpaceOnUse">
<stop stop-color="#3771C8"/>
<stop offset="0.128" stop-color="#3771C8"/>
<stop offset="1" stop-color="#6600FF" stop-opacity="0"/>
</radialGradient>
</defs>
</svg>
